<?xml version="1.0"?>
<svg xmlns="http://www.w3.org/2000/svg" xmlns:xlink="http://www.w3.org/1999/xlink" xmlns:svgjs="http://svgjs.com/svgjs" version="1.1" width="512" height="512" x="0" y="0" viewBox="0 0 60 61" style="enable-background:new 0 0 512 512" xml:space="preserve"><g><g xmlns="http://www.w3.org/2000/svg" id="Page-1" fill="none" fill-rule="evenodd"><g id="037---Hold-Steering-Wheel" fill="rgb(0,0,0)" fill-rule="nonzero" transform="translate(-1)"><path id="Shape" d="m59.83 17.9c-.5059251-.5013023-1.1441482-.8481627-1.84-1 .7026679-.7396365 1.0961678-1.719809 1.1-2.74-.0018158-1.0626225-.4263777-2.0808516-1.18-2.83-.6674488-.6706904-1.5559667-1.0758545-2.5-1.14.3622052-1.36058712-.0175904-2.8114063-1-3.82-1.1457268-1.08828092-2.8158689-1.41919486-4.29-.85-.1280089-.84019304-.5203029-1.61777577-1.12-2.22-1.4071012-1.32080048-3.5413124-1.49103912-5.14-.41-8.1173861-3.84647823-17.5326139-3.84647823-25.65 0-1.6145582-1.12054411-3.7957883-.94470598-5.21.42-.5962823.59537312-.9854178 1.36663275-1.11 2.2-1.4803291-.55339094-3.14638507-.22017975-4.3.86-.98240964 1.0085937-1.36220524 2.45941288-1 3.82-.94449046.0623352-1.83361819.4677774-2.5 1.14-.7536223.7491484-1.17818424 1.7673775-1.18 2.83.00112919 1.0188181.39097997 1.99881 1.09 2.74-.69432357.155924-1.33147698.502203-1.84 1-.74628905.7524223-1.16348963 1.7702479-1.16 2.83.00063361.8608706.28535805 1.6974684.81 2.38-2.86209701 12.0656789 1.99426861 24.6488368 12.2201899 31.6633034 10.2259212 7.0144666 23.713699 7.0144666 33.9396202 0 10.2259213-7.0144666 15.0822869-19.5976245 12.2201899-31.6633034.524642-.6825316.8093664-1.5191294.81-2.38.0008345-1.0611852-.4200457-2.0792116-1.17-2.83zm-.83 2.83c-.0022328.5295768-.2144122 1.0366497-.59 1.41l-4.51 4.52c-.7940606.7505037-2.0359394.7505037-2.83 0-.3755541-.3751365-.5865733-.8841815-.5865733-1.415s.2110192-1.0398635.5865733-1.415l4.52-4.52c.7800749-.7754472 2.0399251-.7754472 2.82 0 .3780394.3757964.5904224.8869554.59 1.42zm-5 9.27c-.0001161 1.2667595-.1071628 2.5312486-.32 3.78l-14.81-5.24c-.6938054-3.8014762-4.0057294-6.5636505-7.87-6.5636505s-7.1761946 2.7621743-7.87 6.5636505l-14.81 5.24c-.21283718-1.2487514-.31988388-2.5132405-.32-3.78 0-.35 0-.7 0-1.05 1.48347312.5938853 3.1780723.2478883 4.31-.88.5999573-.5967389.9895532-1.3724209 1.11-2.21 1.3907248.5349685 2.9635313.2525634 4.0812708-.7328122s1.5951108-2.5103641 1.2387292-3.9571878c.446302-.038599.8826518-.1536059 1.29-.34.1893311.0619163.3832716.1087296.58.14.1765266.0099477.3534734.0099477.53 0 .8792052-.0020886 1.7332304-.2937927 2.43-.83l4.84-3.72c1.2844716-.9856927 1.8480512-2.6484971 1.4276015-4.2120441-.4204496-1.5635471-1.7419948-2.71942714-3.3476015-2.9279559-.56436-.06581356-1.1362264-.01475406-1.68.15l-1.18-1.19c4.7814998-1.60964847 9.9585002-1.60964847 14.74 0l-1.21 1.22c-.5437736-.16475406-1.11564-.21581356-1.68-.15-1.6056067.20852876-2.9271519 1.3644088-3.3476015 2.9279559-.4204497 1.563547.1431299 3.2263514 1.4276015 4.2120441l4.84 3.72c.6967696.5362073 1.5507948.8279114 2.43.83.1765266.0099477.3534734.0099477.53 0 .1967284-.0312704.3906689-.0780837.58-.14.4073482.1863941.843698.301401 1.29.34-.3563816 1.4468237.1209897 2.9718122 1.2387292 3.9571878s2.690546 1.2677807 4.0812708.7328122c.1204468.8375791.5100427 1.6132611 1.11 2.21 1.1330177 1.1473584 2.8441695 1.5022055 4.34.9zm-29.22-18.3c.3490997-.2709353.7781011-.4186243 1.22-.42h.26c.5323822.0646397 1.0165001.340382 1.3436648.76532s.4699629.9634663.3963352 1.49468c-.0667888.5266255-.3402001 1.0050952-.76 1.33l-4.84 3.72c-.424225.3334074-.9651648.4812642-1.5.41-1.0926288-.145144-1.8618655-1.1469407-1.72-2.24.0693116-.5230194.3424776-.9974656.76-1.32zm17.28 3.72c.4175224.3225344.6906884.7969806.76 1.32.0738786.5281503-.0662339 1.0639335-.3892058 1.4883035-.3229719.4243701-.8020524.7021777-1.3307942.7716965-.5255294.071373-1.0578896-.0689111-1.48-.39l-4.84-3.72c-.4319193-.3259546-.7133304-.8130122-.78-1.35-.1418655-1.0930593.6273712-2.094856 1.72-2.24h.26c.4426753-.0032961.8731642.144905 1.22.42zm15-1.26c-.0022328.5295768-.2144122 1.0366497-.59 1.41l-8 8c-.7800749.7754472-2.0399251.7754472-2.82 0-.7754472-.7800749-.7754472-2.0399251 0-2.82l.7-.7 7.28-7.29c.3766035-.3682596.8832783-.5730856 1.41-.57 1.1045695 0 2 .8954305 2 2zm-4.06-6.37c.3755541.37513651.5865733.8841815.5865733 1.415s-.2110192 1.0398635-.5865733 1.415l-.69.7-7.31 7.29c-.2059774.1962018-.4514397.3462065-.72.44.4675693-.770265.6613689-1.6758377.55-2.57-.119129-.8496316-.5082782-1.6384475-1.11-2.25l5.28-5.23v-.12l1.09-1.09c.8063524-.79683928 2.1036476-.79683928 2.91 0zm-5.45-3.08c.7754472.78007491.7754472 2.03992509 0 2.82l-.06.07-5.35 5.4-3.2-2.46 5.77-5.78c.7901186-.75145899 2.0239194-.77318084 2.84-.05zm-5.31-.35-2.24 2.3c-5.7657882-2.1895886-12.1342118-2.1895886-17.9 0l-2.3-2.31c7.1672351-3.14301697 15.3227649-3.14301697 22.49 0zm-27.8.36c.7993674-.74684211 2.0406326-.74684211 2.84 0l5.78 5.78-3.2 2.5-5.37-5.4-.06-.07c-.7660783-.78162771-.761622-2.03384453.01-2.81zm-5.44 3.07c.7960325-.74553012 2.0339675-.74553012 2.83 0l1.17 1.09v.12l5.27 5.26c-.6017218.6115525-.990871 1.4003684-1.11 2.25-.1113689.8941623.0824307 1.799735.55 2.57-.2685603-.0937935-.5140226-.2437982-.72-.44l-7.25-7.31-.74-.71c-.37555409-.3751365-.58657331-.8841815-.58657331-1.415s.21101922-1.03986349.58657331-1.415zm-3.53 5c.37498293-.3719209.88185496-.5804215 1.41-.58.52672173-.0030856 1.03339654.2017404 1.41.57l7.31 7.22.7.7c.7754472.7800749.7754472 2.0399251 0 2.82-.7800749.7754472-2.0399251.7754472-2.82 0l-8-8c-.37555409-.3751365-.58657331-.8841815-.58657331-1.415s.21101922-1.0398635.58657331-1.415zm-1.88 6.52c.78007491-.7754472 2.03992509-.7754472 2.82 0l4.52 4.52c.3755541.3751365.5865733.8841815.5865733 1.415s-.2110192 1.0398635-.5865733 1.415c-.7940606.7505037-2.0359394.7505037-2.83 0l-4.51-4.52c-.37555409-.3751365-.58657331-.8841815-.58657331-1.415s.21101922-1.0398635.58657331-1.415zm27.41 38.69c-15.463973 0-28-12.536027-28-28-.00081877-1.7245614.15988298-3.4454093.48-5.14l2.65 2.65c-.08.84-.13 1.67-.13 2.49.0001539 1.7924059.19462337 3.5795132.58 5.33.06347923.2819084.24580252.5225751.5.66.24935453.1336863.54366963.1554874.81.06l16.48-5.83c.3675678-.1260447.6288382-.4536076.67-.84.3511491-3.0258143 2.9138782-5.3083353 5.96-5.3083353s5.6088509 2.282521 5.96 5.3083353c.0411618.3863924.3024322.7139553.67.84l16.48 5.83c.1053941.0400521.2172527.0603901.33.06.1675258.0008382.3325776-.0404248.48-.12.2541975-.1374249.4365208-.3780916.5-.66.3853766-1.7504868.5798461-3.5375941.58-5.33 0-.82 0-1.65-.13-2.48l2.65-2.66c.320117 1.6945907.4808188 3.4154386.48 5.14 0 15.463973-12.536027 28-28 28z" fill="#9f9f9f" data-original="#000000" style=""/><path id="Shape" d="m35 30c0-2.209139-1.790861-4-4-4s-4 1.790861-4 4 1.790861 4 4 4 4-1.790861 4-4zm-4 2c-1.1045695 0-2-.8954305-2-2s.8954305-2 2-2 2 .8954305 2 2-.8954305 2-2 2z" fill="#9f9f9f" data-original="#000000" style=""/><path id="Shape" d="m28.42 35.41c-.6216037-.287952-1.1870677-.6841154-1.67-1.17-.2635068-.2584022-.647918-.3506609-1-.24l-16.52 5.83c-.27292598.0944442-.49169285.3022728-.6.57-.1172193.2607659-.1172193.5592341 0 .82 3.7396876 7.4629379 10.9650434 12.560098 19.25 13.58h.12c.2430724-.0003498.4776958-.0892223.66-.25.2157843-.1895698.3396363-.4627728.34-.75v-17.48c.0009665-.390571-.2255458-.7459609-.58-.91zm-1.42 17.24c-6.7564982-1.2006499-12.6239544-5.3555423-16-11.33l14.8-5.24c.3725942.3201651.7743476.6047404 1.2.85z" fill="#9f9f9f" data-original="#000000" style=""/><path id="Shape" d="m52.77 39.83-16.48-5.83c-.352082-.1106609-.7364932-.0184022-1 .24-.4829323.4858846-1.0483963.882048-1.67 1.17-.3544542.1640391-.5809665.519429-.58.91v17.49c.0003637.2872272.1242157.5604302.34.75.1823042.1607777.4169276.2496502.66.25h.12c8.2574305-1.0472416 15.4481494-6.1448875 19.17-13.59.1172193-.2607659.1172193-.5592341 0-.82-.0993469-.2595641-.3022347-.4660749-.56-.57zm-17.77 12.82v-15.72c.4256524-.2452596.8274058-.5298349 1.2-.85l14.8 5.24c-3.3760456 5.9744577-9.2435018 10.1293501-16 11.33z" fill="#9f9f9f" data-original="#000000" style=""/></g></g></g></svg>
